<?xml version="1.0" encoding="UTF-8"?>
<svg id="_レイヤー_2" data-name="レイヤー 2" xmlns="http://www.w3.org/2000/svg" viewBox="0 0 1024.07 587.97">
  <defs>
    <style>
      .cls-1 {
        fill: #fff;
      }
    </style>
  </defs>
  <g id="_レイヤー_1-2" data-name="レイヤー 1">
    <path class="cls-1" d="M848.58,34.24c-26.39,2.13-54.48,6.05-83.79,11.55,70.95,13.94,69.61,67.66-8.13,139.32C713.38,76.67,607.47,0,483.58,0,321.22,0,189.6,131.62,189.6,293.99c0,38.41,7.44,75.06,20.84,108.69-.7-6.93-1.06-13.96-1.06-21.07,0-114.5,92.82-207.33,207.33-207.33,81.96,0,152.61,47.68,186.26,116.72-124.49,68-275.26,120.38-384.75,129.19-92.88,7.48-134.24-18.14-121.41-63.33-153.4,134.52-122.51,227.74,78.63,211.54,125.56-10.11,289.4-60.62,440.85-130.56-21.6,76.66-86.26,135.21-166.22,148.18,11.01,1.25,22.18,1.96,33.53,1.96,140.79,0,258.4-98.99,287.19-231.16,46.59-27.74,89.68-56.86,127.13-86.58,185.88-147.5,163.8-253.16-49.33-235.99Z"/>
  </g>
</svg>